<svg xmlns="http://www.w3.org/2000/svg" width="128" height="128" viewBox="0 0 128 128">
  <defs>
    <linearGradient id="grad1" x1="0%" y1="0%" x2="100%" y2="100%">
      <stop offset="0%" style="stop-color:#4facfe;stop-opacity:1" />
      <stop offset="100%" style="stop-color:#00f2fe;stop-opacity:1" />
    </linearGradient>
  </defs>
  
  <!-- 背景圆形 -->
  <circle cx="64" cy="64" r="60" fill="url(#grad1)" stroke="#fff" stroke-width="4"/>
  
  <!-- 书本图标 -->
  <g transform="translate(32, 28)">
    <!-- 书本主体 -->
    <rect x="8" y="16" width="48" height="56" rx="4" fill="#fff" opacity="0.9"/>
    <rect x="12" y="20" width="40" height="48" rx="2" fill="#f8f9fa"/>
    
    <!-- 书签 -->
    <rect x="44" y="12" width="8" height="20" fill="#ff6b6b"/>
    <polygon points="44,32 48,28 52,32" fill="#ff6b6b"/>
    
    <!-- 文字线条 -->
    <rect x="18" y="28" width="28" height="2" fill="#6c757d" opacity="0.6"/>
    <rect x="18" y="34" width="24" height="2" fill="#6c757d" opacity="0.6"/>
    <rect x="18" y="40" width="30" height="2" fill="#6c757d" opacity="0.6"/>
    <rect x="18" y="46" width="20" height="2" fill="#6c757d" opacity="0.6"/>
    <rect x="18" y="52" width="26" height="2" fill="#6c757d" opacity="0.6"/>
    <rect x="18" y="58" width="22" height="2" fill="#6c757d" opacity="0.6"/>
  </g>
  
  <!-- 搜索图标 -->
  <g transform="translate(75, 75)">
    <circle cx="12" cy="12" r="8" fill="none" stroke="#fff" stroke-width="3"/>
    <line x1="19" y1="19" x2="25" y2="25" stroke="#fff" stroke-width="3" stroke-linecap="round"/>
  </g>
</svg>
